<svg width="154" height="35" viewBox="0 0 154 35" fill="none" xmlns="http://www.w3.org/2000/svg">
<path d="M1 34L11 5H13L3 34H1Z" fill="#00BFD5" stroke="#00BFD5"/>
<path d="M26.2188 17H19.5156V4.89844H25.9453V6.50781H21.3906V10.0703H25.6172V11.6719H21.3906V15.3906H26.2188V17ZM38.5703 17H36.4766L30.6875 8.07812C30.474 7.75 30.3177 7.46615 30.2188 7.22656H30.1719C30.2188 7.53906 30.2422 8.1276 30.2422 8.99219V17H28.4219V4.89844H30.6406L36.2578 13.6484C36.5234 14.0651 36.7005 14.3542 36.7891 14.5156H36.8281C36.7708 14.1406 36.7422 13.5625 36.7422 12.7812V4.89844H38.5703V17ZM52.2109 17H45.6094V4.89844H47.4844V15.3906H52.2109V17ZM61 13.1719H55.0625C55.1406 14.9167 56.0286 15.7891 57.7266 15.7891C58.6849 15.7891 59.5573 15.5026 60.3438 14.9297V16.4453C59.5729 16.9505 58.5599 17.2031 57.3047 17.2031C56.0234 17.2031 55.0208 16.8125 54.2969 16.0312C53.5729 15.25 53.2109 14.1562 53.2109 12.75C53.2109 11.4167 53.599 10.3177 54.375 9.45312C55.1562 8.58854 56.1328 8.15625 57.3047 8.15625C58.4714 8.15625 59.3776 8.52604 60.0234 9.26562C60.6745 10 61 11.013 61 12.3047V13.1719ZM59.2188 11.8359C59.2135 11.0964 59.0443 10.5286 58.7109 10.1328C58.3776 9.73698 57.9036 9.53906 57.2891 9.53906C56.7318 9.53906 56.2474 9.75 55.8359 10.1719C55.4245 10.5885 55.1693 11.1432 55.0703 11.8359H59.2188ZM63.1328 8.9375C64.013 8.41667 65.0312 8.15625 66.1875 8.15625C68.3698 8.15625 69.4609 9.28385 69.4609 11.5391V17H67.6797V15.6875H67.6406C67.0521 16.6979 66.1771 17.2031 65.0156 17.2031C64.1667 17.2031 63.4974 16.974 63.0078 16.5156C62.5234 16.0573 62.2812 15.4401 62.2812 14.6641C62.2812 13.0391 63.2474 12.0911 65.1797 11.8203L67.6875 11.4766C67.6875 10.1901 67.1224 9.54688 65.9922 9.54688C64.9557 9.54688 64.0026 9.88281 63.1328 10.5547V8.9375ZM65.7812 12.9844C65.1562 13.0677 64.7135 13.2266 64.4531 13.4609C64.1979 13.6953 64.0703 14.0391 64.0703 14.4922C64.0703 14.8724 64.2083 15.1849 64.4844 15.4297C64.7604 15.6693 65.1146 15.7891 65.5469 15.7891C66.1615 15.7891 66.6719 15.5729 67.0781 15.1406C67.4844 14.7031 67.6875 14.1536 67.6875 13.4922V12.7266L65.7812 12.9844ZM76.7969 10.1094C76.526 9.93229 76.1667 9.84375 75.7188 9.84375C75.125 9.84375 74.6432 10.1042 74.2734 10.625C73.9089 11.1458 73.7266 11.8359 73.7266 12.6953V17H71.8906V8.35938H73.7266V10.0781H73.7656C74.1927 8.83333 74.9479 8.21094 76.0312 8.21094C76.3542 8.21094 76.6094 8.2474 76.7969 8.32031V10.1094ZM85.7891 17H83.9609V12.1172C83.9609 10.4557 83.3568 9.625 82.1484 9.625C81.5391 9.625 81.0339 9.85677 80.6328 10.3203C80.237 10.7786 80.0391 11.362 80.0391 12.0703V17H78.2031V8.35938H80.0391V9.77344H80.0781C80.7188 8.69531 81.6562 8.15625 82.8906 8.15625C84.8229 8.15625 85.7891 9.34375 85.7891 11.7188V17Z" fill="#303240"/>
<path d="M32.6631 29V23.7056H34.2695C36.138 23.7056 37.0723 24.5658 37.0723 26.2861C37.0723 27.1133 36.8057 27.7729 36.2725 28.2651C35.7415 28.755 35.0602 29 34.2285 29H32.6631ZM33.4834 24.4097V28.2959H34.2046C34.8289 28.2959 35.3188 28.1216 35.6743 27.7729C36.0321 27.422 36.2109 26.9321 36.2109 26.3032C36.2109 25.6857 36.0412 25.2163 35.7017 24.895C35.3621 24.5715 34.87 24.4097 34.2251 24.4097H33.4834ZM37.8823 23.9209C37.8823 23.7865 37.9279 23.6759 38.019 23.5894C38.1125 23.5005 38.2298 23.4561 38.3711 23.4561C38.5101 23.4561 38.6274 23.5005 38.7231 23.5894C38.8188 23.6759 38.8667 23.7865 38.8667 23.9209C38.8667 24.0553 38.8188 24.167 38.7231 24.2559C38.6274 24.3424 38.5101 24.3857 38.3711 24.3857C38.2321 24.3857 38.1159 24.3413 38.0225 24.2524C37.929 24.1636 37.8823 24.0531 37.8823 23.9209ZM37.9609 29V25.2197H38.7642V29H37.9609ZM43.293 28.6514C43.293 30.0687 42.5843 30.7773 41.167 30.7773C40.6862 30.7773 40.2783 30.6953 39.9434 30.5312V29.793C40.3581 30.0254 40.7603 30.1416 41.1499 30.1416C42.0431 30.1416 42.4897 29.6847 42.4897 28.771V28.395H42.4761C42.1981 28.8576 41.7799 29.0889 41.2217 29.0889C40.7477 29.0889 40.3672 28.9202 40.0801 28.583C39.7952 28.2435 39.6528 27.7912 39.6528 27.2261C39.6528 26.5881 39.8089 26.0799 40.1211 25.7017C40.4355 25.3211 40.8537 25.1309 41.3755 25.1309C41.87 25.1309 42.2368 25.3257 42.4761 25.7153H42.4897V25.2197H43.293V28.6514ZM42.4966 26.7852C42.4966 26.5049 42.4043 26.2668 42.2197 26.0708C42.0352 25.8726 41.8073 25.7734 41.5361 25.7734C41.2057 25.7734 40.9448 25.8988 40.7534 26.1494C40.5643 26.3978 40.4697 26.743 40.4697 27.1851C40.4697 27.5679 40.5609 27.8743 40.7432 28.1045C40.9255 28.3324 41.1659 28.4463 41.4644 28.4463C41.7674 28.4463 42.0146 28.3335 42.2061 28.1079C42.3997 27.8823 42.4966 27.5975 42.4966 27.2534V26.7852ZM44.3423 23.9209C44.3423 23.7865 44.3879 23.6759 44.479 23.5894C44.5724 23.5005 44.6898 23.4561 44.8311 23.4561C44.9701 23.4561 45.0874 23.5005 45.1831 23.5894C45.2788 23.6759 45.3267 23.7865 45.3267 23.9209C45.3267 24.0553 45.2788 24.167 45.1831 24.2559C45.0874 24.3424 44.9701 24.3857 44.8311 24.3857C44.6921 24.3857 44.5758 24.3413 44.4824 24.2524C44.389 24.1636 44.3423 24.0531 44.3423 23.9209ZM44.4209 29V25.2197H45.2241V29H44.4209ZM48.2969 28.959C48.1488 29.0433 47.9357 29.0854 47.6577 29.0854C46.9399 29.0854 46.5811 28.6958 46.5811 27.9165V25.8555H45.9419V25.2197H46.5811V24.3345L47.3809 24.0918V25.2197H48.2969V25.8555H47.3809V27.7764C47.3809 28.0111 47.4219 28.1808 47.5039 28.2856C47.5882 28.3905 47.7227 28.4429 47.9072 28.4429C48.0508 28.4429 48.1807 28.4019 48.2969 28.3198V28.959ZM49.1479 25.4727C49.533 25.2448 49.9785 25.1309 50.4844 25.1309C51.4391 25.1309 51.9165 25.6242 51.9165 26.6108V29H51.1372V28.4258H51.1201C50.8626 28.8678 50.4798 29.0889 49.9717 29.0889C49.6003 29.0889 49.3075 28.9886 49.0933 28.7881C48.8813 28.5876 48.7754 28.3175 48.7754 27.978C48.7754 27.2671 49.1981 26.8524 50.0435 26.7339L51.1406 26.5835C51.1406 26.0207 50.8934 25.7393 50.3989 25.7393C49.9455 25.7393 49.5285 25.8862 49.1479 26.1802V25.4727ZM50.3066 27.2432C50.0332 27.2796 49.8395 27.3491 49.7256 27.4517C49.6139 27.5542 49.5581 27.7046 49.5581 27.9028C49.5581 28.0692 49.6185 28.2059 49.7393 28.313C49.86 28.4178 50.015 28.4702 50.2041 28.4702C50.473 28.4702 50.6963 28.3757 50.874 28.1865C51.0518 27.9951 51.1406 27.7547 51.1406 27.4653V27.1304L50.3066 27.2432ZM52.9727 29V23.4048H53.7759V29H52.9727ZM57.4604 28.4907V30.7397H56.6572V25.2197H57.4604V25.8486H57.4775C57.7692 25.3701 58.193 25.1309 58.749 25.1309C59.2298 25.1309 59.6081 25.2995 59.8838 25.6367C60.1595 25.9717 60.2974 26.4263 60.2974 27.0005C60.2974 27.6317 60.1413 28.1375 59.8291 28.5181C59.5169 28.8986 59.0988 29.0889 58.5747 29.0889C58.0962 29.0889 57.7305 28.8895 57.4775 28.4907H57.4604ZM57.4536 27.4072C57.4536 27.7012 57.5448 27.9484 57.7271 28.1489C57.9093 28.3472 58.1395 28.4463 58.4175 28.4463C58.7524 28.4463 59.0122 28.3187 59.1968 28.0635C59.3813 27.806 59.4736 27.4505 59.4736 26.9971C59.4736 26.6074 59.3882 26.3066 59.2173 26.0947C59.0464 25.8805 58.8071 25.7734 58.4995 25.7734C58.1919 25.7734 57.9401 25.8851 57.7441 26.1084C57.5505 26.3317 57.4536 26.6143 57.4536 26.9561V27.4072ZM61.1826 29V23.4048H61.9858V29H61.1826ZM63.2095 25.4727C63.5946 25.2448 64.04 25.1309 64.5459 25.1309C65.5007 25.1309 65.978 25.6242 65.978 26.6108V29H65.1987V28.4258H65.1816C64.9242 28.8678 64.5413 29.0889 64.0332 29.0889C63.6618 29.0889 63.369 28.9886 63.1548 28.7881C62.9429 28.5876 62.8369 28.3175 62.8369 27.978C62.8369 27.2671 63.2596 26.8524 64.105 26.7339L65.2021 26.5835C65.2021 26.0207 64.9549 25.7393 64.4604 25.7393C64.007 25.7393 63.59 25.8862 63.2095 26.1802V25.4727ZM64.3682 27.2432C64.0947 27.2796 63.901 27.3491 63.7871 27.4517C63.6755 27.5542 63.6196 27.7046 63.6196 27.9028C63.6196 28.0692 63.68 28.2059 63.8008 28.313C63.9215 28.4178 64.0765 28.4702 64.2656 28.4702C64.5345 28.4702 64.7578 28.3757 64.9355 28.1865C65.1133 27.9951 65.2021 27.7547 65.2021 27.4653V27.1304L64.3682 27.2432ZM68.9824 28.959C68.8343 29.0433 68.6213 29.0854 68.3433 29.0854C67.6255 29.0854 67.2666 28.6958 67.2666 27.9165V25.8555H66.6274V25.2197H67.2666V24.3345L68.0664 24.0918V25.2197H68.9824V25.8555H68.0664V27.7764C68.0664 28.0111 68.1074 28.1808 68.1895 28.2856C68.2738 28.3905 68.4082 28.4429 68.5928 28.4429C68.7363 28.4429 68.8662 28.4019 68.9824 28.3198V28.959ZM71.8228 24.061C71.6883 23.9972 71.5505 23.9653 71.4092 23.9653C71.0036 23.9653 70.8008 24.2103 70.8008 24.7002V25.2197H71.6758V25.8555H70.8008V29H70.001V25.8555H69.3584V25.2197H70.001V24.6592C70.001 24.2467 70.1252 23.9209 70.3735 23.6816C70.6219 23.4401 70.9398 23.3193 71.3271 23.3193C71.5277 23.3193 71.6929 23.3421 71.8228 23.3877V24.061ZM72.0552 27.144C72.0552 26.522 72.2318 26.0309 72.585 25.6709C72.9404 25.3109 73.4235 25.1309 74.0342 25.1309C74.6107 25.1309 75.0664 25.3052 75.4014 25.6538C75.7363 26.0024 75.9038 26.4787 75.9038 27.0825C75.9038 27.6909 75.7272 28.1774 75.374 28.542C75.0208 28.9066 74.5492 29.0889 73.959 29.0889C73.3802 29.0889 72.9176 28.9123 72.5713 28.5591C72.2272 28.2059 72.0552 27.7342 72.0552 27.144ZM72.8721 27.127C72.8721 27.5417 72.9723 27.8652 73.1729 28.0977C73.3757 28.3301 73.6502 28.4463 73.9966 28.4463C74.7235 28.4463 75.0869 27.9985 75.0869 27.103C75.0869 26.6701 74.9935 26.3408 74.8066 26.1152C74.6198 25.8874 74.3498 25.7734 73.9966 25.7734C73.6434 25.7734 73.3677 25.8942 73.1694 26.1357C72.9712 26.3773 72.8721 26.7077 72.8721 27.127ZM78.9424 25.9854C78.8239 25.9079 78.6667 25.8691 78.4707 25.8691C78.2109 25.8691 78.0002 25.9831 77.8384 26.2109C77.6789 26.4388 77.5991 26.7407 77.5991 27.1167V29H76.7959V25.2197H77.5991V25.9717H77.6162C77.8031 25.4271 78.1335 25.1548 78.6074 25.1548C78.7487 25.1548 78.8604 25.1707 78.9424 25.2026V25.9854ZM85.1494 29H84.3462V26.833C84.3462 26.4593 84.2858 26.1893 84.165 26.0229C84.0443 25.8566 83.8517 25.7734 83.5874 25.7734C83.3595 25.7734 83.1636 25.8783 82.9995 26.0879C82.8354 26.2975 82.7534 26.5539 82.7534 26.8569V29H81.9536V26.7783C81.9536 26.1084 81.6973 25.7734 81.1846 25.7734C80.9476 25.7734 80.7505 25.8748 80.5933 26.0776C80.4383 26.2804 80.3608 26.5425 80.3608 26.8638V29H79.5576V25.2197H80.3608V25.8145H80.3779C80.6491 25.3587 81.0456 25.1309 81.5674 25.1309C82.0983 25.1309 82.4572 25.3826 82.644 25.8862C82.9266 25.3826 83.3481 25.1309 83.9087 25.1309C84.7358 25.1309 85.1494 25.6424 85.1494 26.6655V29Z" fill="black"/>
</svg>
